<svg width="32" height="32" viewBox="0 0 32 32" fill="none" xmlns="http://www.w3.org/2000/svg">
  <defs>
    <linearGradient id="bgGradient" x1="0%" y1="0%" x2="100%" y2="100%">
      <stop offset="0%" style="stop-color:#3B82F6;stop-opacity:1" />
      <stop offset="100%" style="stop-color:#1D4ED8;stop-opacity:1" />
    </linearGradient>
  </defs>
  
  <!-- Background circle -->
  <circle cx="16" cy="16" r="15" fill="url(#bgGradient)"/>
  
  <!-- Simplified phone icon -->
  <path d="M10 11C10 10.4477 10.4477 10 11 10H13C13.5523 10 14 10.4477 14 11V13C14 13.5523 13.5523 14 13 14H11C10.4477 14 10 13.5523 10 13V11Z" fill="white"/>
  
  <path d="M18 18C18 17.4477 18.4477 17 19 17H21C21.5523 17 22 17.4477 22 18V20C22 20.5523 21.5523 21 21 21H19C18.4477 21 18 20.5523 18 20V18Z" fill="white"/>
  
  <!-- Connecting line -->
  <path d="M13 12L19 19" stroke="white" stroke-width="2" stroke-linecap="round"/>
  
  <!-- Signal waves -->
  <path d="M23 9C25 11 25 13 23 15" stroke="#10B981" stroke-width="1.5" fill="none" stroke-linecap="round"/>
  <path d="M24 10C25.5 11.5 25.5 12.5 24 14" stroke="#10B981" stroke-width="1.5" fill="none" stroke-linecap="round"/>
</svg>
