<svg width="64" height="64" viewBox="0 0 64 64" fill="none" xmlns="http://www.w3.org/2000/svg">
  <defs>
    <linearGradient id="minimal-gradient" x1="0%" y1="0%" x2="100%" y2="100%">
      <stop offset="0%" style="stop-color:#6366F1;stop-opacity:1" />
      <stop offset="100%" style="stop-color:#8B5CF6;stop-opacity:1" />
    </linearGradient>
  </defs>
  
  <!-- Clean circular background -->
  <circle cx="32" cy="32" r="28" fill="url(#minimal-gradient)" opacity="0.1"/>
  
  <!-- Minimalist phone icon -->
  <path d="M24 20 C22 20 20 22 20 24 L20 28 C20 30 22 32 24 32 L28 32 C30 32 32 30 32 28 L32 24 C32 22 30 20 28 20 Z" 
        fill="none" 
        stroke="url(#minimal-gradient)" 
        stroke-width="2.5" 
        stroke-linecap="round" 
        stroke-linejoin="round"/>
  
  <path d="M36 32 C34 32 32 34 32 36 L32 40 C32 42 34 44 36 44 L40 44 C42 44 44 42 44 40 L44 36 C44 34 42 32 40 32 Z" 
        fill="none" 
        stroke="url(#minimal-gradient)" 
        stroke-width="2.5" 
        stroke-linecap="round" 
        stroke-linejoin="round"/>
  
  <!-- Elegant connecting line -->
  <path d="M28 26 Q32 30 36 34" 
        stroke="url(#minimal-gradient)" 
        stroke-width="2" 
        fill="none" 
        stroke-linecap="round"/>
  
</svg>
